# xmcd
# 
# Track frame offsets:
#     150
#     18312
#     36992
#     59375
#     75977
#     92487
#     110904
#     133595
#     146247
#     165437
#     188972
#     207497
#     233565
# 
# Disc length: 3369
# 
# Revision: 1
# Processed by: cddbd v1.5.2PL0 Copyright (c) Steve Scherf et al.
# Submitted via: BonkEnc v1.0beta4
# 
DISCID=af0d270d
DTITLE=Laura Fygi - The Best Of CD1
DYEAR=0
DGENRE=Slow Jam
TTITLE0=Triste
TTITLE1=Good Morning Heartache
TTITLE2=The Lady Wants To Know
TTITLE3=Don't Make My Brown Eyes Blue
TTITLE4=Dream A Little Dream
TTITLE5=Corcovado
TTITLE6=Have I Told You Lately That I Love You
TTITLE7=I'll Wait For You
TTITLE8=The Way He Makes Me Feel
TTITLE9=How Am I Supposed To Live Without You
TTITLE10=It's Crazy
TTITLE11=Turn Out The Lamplight
TTITLE12=Dindi
EXTD=
EXTT0=
EXTT1=
EXTT2=
EXTT3=
EXTT4=
EXTT5=
EXTT6=
EXTT7=
EXTT8=
EXTT9=
EXTT10=
EXTT11=
EXTT12=
PLAYORDER=
